<svg xmlns="http://www.w3.org/2000/svg" viewBox="0 0 1080 1080"><defs><style>.a31befec-ca54-4ef7-b686-2e158ba26f04{fill:#1a1a1a;}.e9e57e62-94bd-47bc-bd93-199e946a21fb{fill:#6d54e3;}</style></defs><g id="b6d40d69-ada2-47f9-b776-40bd11ed0390" data-name="Camada 1"><path class="a31befec-ca54-4ef7-b686-2e158ba26f04" d="M417.82,1011.61q34.46,9.24,71.58-7.58t69.1-59.91q32-43.08,50.65-112.78L783.94,179l35.2,9.43L643.41,844.26Q621,927.89,582,979.67T496.58,1052q-46.36,20.55-91.1,8.58"/><polyline class="a31befec-ca54-4ef7-b686-2e158ba26f04" points="425.71 219.01 289.44 724.02 305.47 788.15 345.55 776.13 497.85 211 490.64 194.96"/><path class="a31befec-ca54-4ef7-b686-2e158ba26f04" d="M481.58,15l-55,205.23c9.22-3.62,18.59-7,28.3-9.76a287.47,287.47,0,0,1,39.16-8.32L540,30.65Z"/><path class="a31befec-ca54-4ef7-b686-2e158ba26f04" d="M361.3,970.33Q337.77,937.87,331.78,884q-5.25-47.18,8.41-106.45a288.51,288.51,0,0,1-30-27c-7-7.26-13.46-14.85-19.63-22.6l-5.44,20.32q-22.41,83.63-14.51,148c5.26,42.92,25.73,80.15,45.89,107.53s60.15,49.1,89,56.83l12.34-49Q384.84,1002.78,361.3,970.33Z"/><path class="e9e57e62-94bd-47bc-bd93-199e946a21fb" d="M847.19,435.09q-20.1-80.7-77.56-140.29t-146.9-83.55q-66.84-17.91-128.68-9.1L344.46,760.42q-2.32,8.69-4.27,17.12,49.1,38.34,115.73,56.24,89.41,24,169,1.09t137.47-83.29q57.87-60.41,81.23-147.53Q867.28,515.79,847.19,435.09Z"/><path class="e9e57e62-94bd-47bc-bd93-199e946a21fb" d="M317.42,293.76q-57.92,60.42-81.23,147.53t-3.42,168.38a303.37,303.37,0,0,0,57.78,118.26l136-507.7A303.5,303.5,0,0,0,317.42,293.76Z"/></g></svg>